<svg xmlns="http://www.w3.org/2000/svg" width="466.9" height="233.431" viewBox="0 0 466.9 233.431">
  <g id="g4" transform="translate(-44.627 -141.773)">
    <g id="g6" transform="translate(44.627 141.773)">
      <path id="path8" d="M808.7,3985.39h69.241q30.487.257,44.18,17.483t9.043,47.049a89.988,89.988,0,0,1-8.009,26.738,79.472,79.472,0,0,1-16.535,23.654q-12.918,13.369-27.645,16.968a127.958,127.958,0,0,1-30.487,3.6h-31l-9.818,48.848H771.757L808.7,3985.39m30.228,29.309-15.5,77.129a18.892,18.892,0,0,0,3.1.257h3.617q24.8.257,41.338-4.884,16.535-5.4,22.219-37.537,4.65-27-9.3-31.109-13.693-4.113-34.362-3.856-3.1.257-5.942.257h-5.426l.258-.257" transform="translate(-771.757 -3936.298)" fill="#383838"/>
      <path id="path10" d="M1088.471,3901.273h35.654l-10.076,49.105h32.037q26.353.515,39.271,10.8,13.177,10.284,7.751,39.079l-17.31,85.614h-36.171l16.535-81.757q2.583-12.855-1.55-18.254t-17.827-5.4l-28.678-.257-21.186,105.667h-35.654l37.2-184.6" transform="translate(-888.142 -3901.273)" fill="#383838"/>
      <path id="path12" d="M1333.559,3985.39H1402.8q30.487.257,44.18,17.483t9.043,47.049a89.982,89.982,0,0,1-8.009,26.738,79.47,79.47,0,0,1-16.535,23.654q-12.918,13.369-27.645,16.968a127.959,127.959,0,0,1-30.487,3.6h-31l-9.818,48.848h-35.912l36.946-184.339m30.228,29.309-15.5,77.129a18.892,18.892,0,0,0,3.1.257H1355q24.8.257,41.338-4.884,16.535-5.4,22.219-37.537,4.65-27-9.3-31.109-13.694-4.113-34.362-3.856-3.1.257-5.942.257h-5.426l.258-.257" transform="translate(-990.302 -3936.298)" fill="#383838"/>
    </g>
  </g>
</svg>
