<svg xmlns="http://www.w3.org/2000/svg" width="1296.127" height="1153.23" viewBox="0 0 1296.127 1153.23">
  <g id="Komponente_36_1" data-name="Komponente 36 – 1" transform="translate(2.5)">
    <circle id="Ellipse_2" data-name="Ellipse 2" cx="25" cy="25" r="25" transform="translate(0 31)" fill="#2e417b"/>
    <g id="Gruppe_50" data-name="Gruppe 50" transform="translate(25.5 56.5)">
      <path id="Pfad_1258" data-name="Pfad 1258" d="M0,0H1109.818s155.809-1.064,155.809,174.639S1109.818,360,1109.818,360s-772.615.488-1019.012.488" transform="translate(0 0)" fill="none" stroke="#2e417b" stroke-linecap="round" stroke-width="5"/>
    </g>
    <text id="Einschulung" transform="translate(270 44)" fill="rgba(0,0,0,0.87)" font-size="46" font-family="Roboto-Light, Roboto" font-weight="300" letter-spacing="-0.008em"><tspan x="0" y="0">Einschulung</tspan></text>
    <g id="Bow" transform="translate(123.5 779.012) rotate(180)">
      <path id="Pfad_1258-2" data-name="Pfad 1258" d="M822.112,0s123.5-1.064,123.5,174.639S822.112,360,822.112,360" transform="translate(-822.112 0)" fill="none" stroke="#2e417b" stroke-linecap="round" stroke-width="5"/>
    </g>
    <path id="Pfad_1302" data-name="Pfad 1302" d="M-3510.291-931.877h978.254" transform="translate(3654.746 1711.374)" fill="none" stroke="#2e417b" stroke-width="5"/>
    <line id="Linie_192" data-name="Linie 192" y2="25" transform="translate(658.876 779.556)" fill="none" stroke="#2e417b" stroke-width="2"/>
    <g id="item_ausbildung" transform="translate(122 780.73)">
      <g id="Bow-2" data-name="Bow" transform="translate(1000.709)">
        <path id="Pfad_1258-3" data-name="Pfad 1258" d="M822.112,0S990.53-1.064,990.53,174.639,822.112,360,822.112,360" transform="translate(-822.112 0)" fill="none" stroke="#2e417b" stroke-linecap="round" stroke-width="5"/>
      </g>
      <g id="Schule_1" data-name="Schule 1" transform="translate(199.41 25)">
        <g id="Background" fill="none" stroke="#2e417b" stroke-width="2">
          <rect width="633" height="220" rx="5" stroke="none"/>
          <rect x="1" y="1" width="631" height="218" rx="4" fill="none"/>
        </g>
        <g id="Gruppe_42" data-name="Gruppe 42" transform="translate(0 15)">
          <g id="Date" transform="translate(19 128)">
            <text id="_1.1.1" data-name="1.1.1" transform="translate(90 50)" fill="rgba(0,0,0,0.87)" font-size="46" font-family="Roboto-Light, Roboto" font-weight="300" letter-spacing="-0.008em"><tspan x="0" y="0">1.1.1</tspan></text>
            <g id="Line" transform="translate(-49.5 34)">
              <line id="Linie_181" data-name="Linie 181" x2="23" transform="translate(101.5)" fill="none" stroke="#000" stroke-linecap="round" stroke-width="2"/>
            </g>
            <g id="Xbtn" transform="translate(-144.408 9)">
              <g id="Rechteck_84" data-name="Rechteck 84" transform="translate(141.408)" fill="#fff" stroke="#707070" stroke-linecap="round" stroke-linejoin="round" stroke-width="1">
                <rect width="40" height="48.563" rx="5" stroke="none"/>
                <rect x="0.5" y="0.5" width="39" height="47.563" rx="4.5" fill="none"/>
              </g>
              <g id="X" transform="translate(151.408 10)">
                <line id="Linie_182" data-name="Linie 182" y2="34.869" transform="matrix(-0.819, -0.574, 0.574, -0.819, 0, 28.563)" fill="none" stroke="#000" stroke-linecap="round" stroke-width="2"/>
                <line id="Linie_183" data-name="Linie 183" y2="34.869" transform="matrix(-0.819, 0.574, -0.574, -0.819, 20, 28.563)" fill="none" stroke="#000" stroke-linecap="round" stroke-width="2"/>
              </g>
            </g>
          </g>
          <g id="Gruppe_41" data-name="Gruppe 41" transform="translate(15 -9)">
            <text id="Altötting" transform="translate(0 113)" fill="rgba(0,0,0,0.87)" font-size="40" font-family="Roboto-Light, Roboto" font-weight="300" letter-spacing="-0.008em"><tspan x="0" y="0">Altötting</tspan></text>
            <text id="Josef-_Guggenmos-SDchule" data-name="Josef- Guggenmos-SDchule" transform="translate(0 57)" fill="rgba(0,0,0,0.87)" font-size="50" font-family="Roboto-Light, Roboto" font-weight="300" letter-spacing="-0.008em"><tspan x="0" y="0">Josef- Guggenmos-SDchule</tspan></text>
          </g>
        </g>
      </g>
      <path id="Pfad_1303" data-name="Pfad 1303" d="M-3556.709-931.877H-2556" transform="translate(3556.709 1291.877)" fill="none" stroke="#2e417b" stroke-width="5"/>
    </g>
    <g id="item" transform="translate(746.999 56.5)">
      <g id="Schule_1-2" data-name="Schule 1" transform="translate(0 24.5)">
        <g id="Background-2" data-name="Background" fill="none" stroke="#2e417b" stroke-width="2">
          <rect width="393" height="148.563" rx="5" stroke="none"/>
          <rect x="1" y="1" width="391" height="146.563" rx="4" fill="none"/>
        </g>
        <g id="Gruppe_42-2" data-name="Gruppe 42" transform="translate(0 -20.825)">
          <g id="Date-2" data-name="Date" transform="translate(51.429 96)">
            <g id="Xbtn-2" data-name="Xbtn" transform="translate(-123.266 22.825)">
              <g id="Rechteck_84-2" data-name="Rechteck 84" transform="translate(192.837)" fill="#fff" stroke="#707070" stroke-linecap="round" stroke-linejoin="round" stroke-width="1">
                <rect width="31" height="35.563" rx="5" stroke="none"/>
                <rect x="0.5" y="0.5" width="30" height="34.563" rx="4.5" fill="none"/>
              </g>
              <g id="X-2" data-name="X" transform="translate(202.837 10)">
                <line id="Linie_182-2" data-name="Linie 182" x2="0.249" y2="18.824" transform="matrix(-0.819, -0.574, 0.574, -0.819, -0.002, 15.563)" fill="none" stroke="#000" stroke-linecap="round" stroke-width="2"/>
                <line id="Linie_183-2" data-name="Linie 183" x1="0.249" y2="18.824" transform="matrix(-0.819, 0.574, -0.574, -0.819, 10.795, 15.42)" fill="none" stroke="#000" stroke-linecap="round" stroke-width="2"/>
              </g>
            </g>
            <g id="Line-2" data-name="Line" transform="translate(-69.929 41)">
              <line id="Linie_181-2" data-name="Linie 181" x2="23" transform="translate(101.5)" fill="none" stroke="#000" stroke-linecap="round" stroke-width="2"/>
            </g>
            <text id="_1.1.1-2" data-name="1.1.1" transform="translate(-36.429 50)" fill="rgba(0,0,0,0.87)" font-size="25" font-family="Roboto-Light, Roboto" font-weight="300" letter-spacing="-0.008em"><tspan x="0" y="0">1.1.1</tspan></text>
          </g>
          <g id="Gruppe_41-2" data-name="Gruppe 41" transform="translate(15 7.825)">
            <text id="_25" data-name="25" transform="translate(0 85)" fill="rgba(0,0,0,0.87)" font-size="25" font-family="Roboto-Light, Roboto" font-weight="300" letter-spacing="-0.008em"><tspan x="0" y="0">25</tspan></text>
            <text id="Josef-_Guggenmos-SDchule-2" data-name="Josef- Guggenmos-SDchule" transform="translate(0 57)" fill="rgba(0,0,0,0.87)" font-size="30" font-family="Roboto-Light, Roboto" font-weight="300" letter-spacing="-0.008em"><tspan x="0" y="0">Josef- Guggenmos-SDchule</tspan></text>
          </g>
        </g>
      </g>
      <line id="Linie_184" data-name="Linie 184" y2="25" transform="translate(199.715)" fill="none" stroke="#2e417b" stroke-width="2"/>
    </g>
    <g id="item-2" data-name="item" transform="translate(190.736 56)">
      <g id="Schule_1-3" data-name="Schule 1" transform="translate(0 25)">
        <g id="Background-3" data-name="Background" fill="none" stroke="#2e417b" stroke-width="2">
          <rect width="393" height="148.563" rx="5" stroke="none"/>
          <rect x="1" y="1" width="391" height="146.563" rx="4" fill="none"/>
        </g>
        <g id="Gruppe_42-3" data-name="Gruppe 42" transform="translate(0 -20.825)">
          <g id="Date-3" data-name="Date" transform="translate(51.429 96)">
            <g id="Xbtn-3" data-name="Xbtn" transform="translate(-123.266 22.825)">
              <g id="Rechteck_84-3" data-name="Rechteck 84" transform="translate(192.837)" fill="#fff" stroke="#707070" stroke-linecap="round" stroke-linejoin="round" stroke-width="1">
                <rect width="31" height="35.563" rx="5" stroke="none"/>
                <rect x="0.5" y="0.5" width="30" height="34.563" rx="4.5" fill="none"/>
              </g>
              <g id="X-3" data-name="X" transform="translate(202.837 10)">
                <line id="Linie_182-3" data-name="Linie 182" x2="0.249" y2="18.824" transform="matrix(-0.819, -0.574, 0.574, -0.819, -0.002, 15.563)" fill="none" stroke="#000" stroke-linecap="round" stroke-width="2"/>
                <line id="Linie_183-3" data-name="Linie 183" x1="0.249" y2="18.824" transform="matrix(-0.819, 0.574, -0.574, -0.819, 10.795, 15.42)" fill="none" stroke="#000" stroke-linecap="round" stroke-width="2"/>
              </g>
            </g>
            <g id="Line-3" data-name="Line" transform="translate(-69.929 41)">
              <line id="Linie_181-3" data-name="Linie 181" x2="23" transform="translate(101.5)" fill="none" stroke="#000" stroke-linecap="round" stroke-width="2"/>
            </g>
            <text id="_1.1.1-3" data-name="1.1.1" transform="translate(-36.429 50)" fill="rgba(0,0,0,0.87)" font-size="25" font-family="Roboto-Light, Roboto" font-weight="300" letter-spacing="-0.008em"><tspan x="0" y="0">1.1.1</tspan></text>
          </g>
          <g id="Gruppe_41-3" data-name="Gruppe 41" transform="translate(15 7.825)">
            <text id="_25-2" data-name="25" transform="translate(0 85)" fill="rgba(0,0,0,0.87)" font-size="25" font-family="Roboto-Light, Roboto" font-weight="300" letter-spacing="-0.008em"><tspan x="0" y="0">25</tspan></text>
            <text id="Josef-_Guggenmos-SDchule-3" data-name="Josef- Guggenmos-SDchule" transform="translate(0 57)" fill="rgba(0,0,0,0.87)" font-size="30" font-family="Roboto-Light, Roboto" font-weight="300" letter-spacing="-0.008em"><tspan x="0" y="0">Josef- Guggenmos-SDchule</tspan></text>
          </g>
        </g>
      </g>
      <line id="Linie_194" data-name="Linie 194" y2="25" transform="translate(199.715)" fill="none" stroke="#2e417b" stroke-width="2"/>
    </g>
    <g id="item-3" data-name="item" transform="translate(185.165 418.084)">
      <g id="Schule_1-4" data-name="Schule 1" transform="translate(0 24.5)">
        <g id="Background-4" data-name="Background" fill="none" stroke="#2e417b" stroke-width="2">
          <rect width="393" height="148.563" rx="5" stroke="none"/>
          <rect x="1" y="1" width="391" height="146.563" rx="4" fill="none"/>
        </g>
        <g id="Gruppe_42-4" data-name="Gruppe 42" transform="translate(0 -20.825)">
          <g id="Date-4" data-name="Date" transform="translate(51.429 96)">
            <g id="Xbtn-4" data-name="Xbtn" transform="translate(-123.266 22.825)">
              <g id="Rechteck_84-4" data-name="Rechteck 84" transform="translate(192.837)" fill="#fff" stroke="#707070" stroke-linecap="round" stroke-linejoin="round" stroke-width="1">
                <rect width="31" height="35.563" rx="5" stroke="none"/>
                <rect x="0.5" y="0.5" width="30" height="34.563" rx="4.5" fill="none"/>
              </g>
              <g id="X-4" data-name="X" transform="translate(202.837 10)">
                <line id="Linie_182-4" data-name="Linie 182" x2="0.249" y2="18.824" transform="matrix(-0.819, -0.574, 0.574, -0.819, -0.002, 15.563)" fill="none" stroke="#000" stroke-linecap="round" stroke-width="2"/>
                <line id="Linie_183-4" data-name="Linie 183" x1="0.249" y2="18.824" transform="matrix(-0.819, 0.574, -0.574, -0.819, 10.795, 15.42)" fill="none" stroke="#000" stroke-linecap="round" stroke-width="2"/>
              </g>
            </g>
            <g id="Line-4" data-name="Line" transform="translate(-69.929 41)">
              <line id="Linie_181-4" data-name="Linie 181" x2="23" transform="translate(101.5)" fill="none" stroke="#000" stroke-linecap="round" stroke-width="2"/>
            </g>
            <text id="_1.1.1-4" data-name="1.1.1" transform="translate(-36.429 50)" fill="rgba(0,0,0,0.87)" font-size="25" font-family="Roboto-Light, Roboto" font-weight="300" letter-spacing="-0.008em"><tspan x="0" y="0">1.1.1</tspan></text>
          </g>
          <g id="Gruppe_41-4" data-name="Gruppe 41" transform="translate(15 7.825)">
            <text id="_25-3" data-name="25" transform="translate(0 85)" fill="rgba(0,0,0,0.87)" font-size="25" font-family="Roboto-Light, Roboto" font-weight="300" letter-spacing="-0.008em"><tspan x="0" y="0">25</tspan></text>
            <text id="Josef-_Guggenmos-SDchule-4" data-name="Josef- Guggenmos-SDchule" transform="translate(0 57)" fill="rgba(0,0,0,0.87)" font-size="30" font-family="Roboto-Light, Roboto" font-weight="300" letter-spacing="-0.008em"><tspan x="0" y="0">Josef- Guggenmos-SDchule</tspan></text>
          </g>
        </g>
      </g>
      <line id="Linie_184-2" data-name="Linie 184" y2="25" transform="translate(205.285)" fill="none" stroke="#2e417b" stroke-width="2"/>
    </g>
    <g id="item-4" data-name="item" transform="translate(746.999 418.588)">
      <g id="Schule_1-5" data-name="Schule 1" transform="translate(0 25)">
        <g id="Background-5" data-name="Background" fill="none" stroke="#2e417b" stroke-width="2">
          <rect width="393" height="148.563" rx="5" stroke="none"/>
          <rect x="1" y="1" width="391" height="146.563" rx="4" fill="none"/>
        </g>
        <g id="Gruppe_42-5" data-name="Gruppe 42" transform="translate(0 -20.825)">
          <g id="Date-5" data-name="Date" transform="translate(51.429 96)">
            <g id="Xbtn-5" data-name="Xbtn" transform="translate(-123.266 22.825)">
              <g id="Rechteck_84-5" data-name="Rechteck 84" transform="translate(192.837)" fill="#fff" stroke="#707070" stroke-linecap="round" stroke-linejoin="round" stroke-width="1">
                <rect width="31" height="35.563" rx="5" stroke="none"/>
                <rect x="0.5" y="0.5" width="30" height="34.563" rx="4.5" fill="none"/>
              </g>
              <g id="X-5" data-name="X" transform="translate(202.837 10)">
                <line id="Linie_182-5" data-name="Linie 182" x2="0.249" y2="18.824" transform="matrix(-0.819, -0.574, 0.574, -0.819, -0.002, 15.563)" fill="none" stroke="#000" stroke-linecap="round" stroke-width="2"/>
                <line id="Linie_183-5" data-name="Linie 183" x1="0.249" y2="18.824" transform="matrix(-0.819, 0.574, -0.574, -0.819, 10.795, 15.42)" fill="none" stroke="#000" stroke-linecap="round" stroke-width="2"/>
              </g>
            </g>
            <g id="Line-5" data-name="Line" transform="translate(-69.929 41)">
              <line id="Linie_181-5" data-name="Linie 181" x2="23" transform="translate(101.5)" fill="none" stroke="#000" stroke-linecap="round" stroke-width="2"/>
            </g>
            <text id="_1.1.1-5" data-name="1.1.1" transform="translate(-36.429 50)" fill="rgba(0,0,0,0.87)" font-size="25" font-family="Roboto-Light, Roboto" font-weight="300" letter-spacing="-0.008em"><tspan x="0" y="0">1.1.1</tspan></text>
          </g>
          <g id="Gruppe_41-5" data-name="Gruppe 41" transform="translate(15 7.825)">
            <text id="_25-4" data-name="25" transform="translate(0 85)" fill="rgba(0,0,0,0.87)" font-size="25" font-family="Roboto-Light, Roboto" font-weight="300" letter-spacing="-0.008em"><tspan x="0" y="0">25</tspan></text>
            <text id="Josef-_Guggenmos-SDchule-5" data-name="Josef- Guggenmos-SDchule" transform="translate(0 57)" fill="rgba(0,0,0,0.87)" font-size="30" font-family="Roboto-Light, Roboto" font-weight="300" letter-spacing="-0.008em"><tspan x="0" y="0">Josef- Guggenmos-SDchule</tspan></text>
          </g>
        </g>
      </g>
      <line id="Linie_194-2" data-name="Linie 194" y2="25" transform="translate(199.715)" fill="none" stroke="#2e417b" stroke-width="2"/>
    </g>
    <path id="Pfad_1315" data-name="Pfad 1315" d="M12.5,0A12.5,12.5,0,1,1,0,12.5,12.5,12.5,0,0,1,12.5,0Z" transform="translate(111 405.798)" fill="#2e417b"/>
    <circle id="Ellipse_3" data-name="Ellipse 3" cx="25" cy="25" r="25" transform="translate(99 754)" fill="#2e417b"/>
    <path id="Pfad_1359" data-name="Pfad 1359" d="M12.5,0A12.5,12.5,0,1,1,0,12.5,12.5,12.5,0,0,1,12.5,0Z" transform="translate(111 1128.23)" fill="#2e417b"/>
    <text id="Qualifizierter_Mittelschulabschluss" data-name="Qualifizierter Mittelschulabschluss" transform="translate(156 407)" fill="rgba(0,0,0,0.87)" font-size="46" font-family="Roboto-Bold, Roboto" font-weight="700" letter-spacing="-0.008em"><tspan x="0" y="0">Qualifizierter Mittelschulabschluss</tspan></text>
    <text id="Ausbildungsbeginn" transform="translate(470 767)" fill="rgba(0,0,0,0.87)" font-size="46" font-family="Roboto-Light, Roboto" font-weight="300" letter-spacing="-0.008em"><tspan x="0" y="0">Ausbildungsbeginn</tspan></text>
    <text id="Ausbildung_ohne_Abschluss_beendet" data-name="Ausbildung ohne Abschluss beendet" transform="translate(288 1129)" fill="rgba(0,0,0,0.87)" font-size="46" font-family="Roboto-Bold, Roboto" font-weight="700" letter-spacing="-0.008em"><tspan x="0" y="0">Ausbildung ohne Abschluss beendet</tspan></text>
  </g>
</svg>
